<svg width="135" height="46" viewBox="0 0 135 46" fill="none" xmlns="http://www.w3.org/2000/svg">
<path d="M67.676 37L67.6 22.902L60.76 34.378H57.416L50.614 23.282V37H43.66V10.4H49.854L59.202 25.752L68.322 10.4H74.516L74.592 37H67.676ZM97.7379 23.13H104.388V34.15C102.868 35.2393 101.12 36.0753 99.1439 36.658C97.1679 37.2407 95.1919 37.532 93.2159 37.532C90.4292 37.532 87.9212 36.9493 85.6919 35.784C83.4625 34.5933 81.7145 32.9467 80.4479 30.844C79.1812 28.7413 78.5479 26.36 78.5479 23.7C78.5479 21.04 79.1812 18.6587 80.4479 16.556C81.7145 14.4533 83.4752 12.8193 85.7299 11.654C87.9845 10.4633 90.5305 9.868 93.3679 9.868C95.8505 9.868 98.0799 10.286 100.056 11.122C102.032 11.958 103.679 13.1613 104.996 14.732L100.208 19.064C98.4092 17.088 96.2559 16.1 93.7479 16.1C91.4679 16.1 89.6312 16.7967 88.2379 18.19C86.8445 19.558 86.1479 21.3947 86.1479 23.7C86.1479 25.1693 86.4645 26.4867 87.0979 27.652C87.7312 28.792 88.6179 29.6913 89.7579 30.35C90.8979 30.9833 92.2025 31.3 93.6719 31.3C95.1159 31.3 96.4712 31.0087 97.7379 30.426V23.13ZM122.42 37.532C119.633 37.532 117.125 36.9493 114.896 35.784C112.692 34.5933 110.957 32.9467 109.69 30.844C108.423 28.7413 107.79 26.36 107.79 23.7C107.79 21.04 108.423 18.6587 109.69 16.556C110.957 14.4533 112.692 12.8193 114.896 11.654C117.125 10.4633 119.633 9.868 122.42 9.868C124.852 9.868 127.043 10.2987 128.994 11.16C130.945 12.0213 132.566 13.2627 133.858 14.884L129.07 19.216C127.347 17.1387 125.257 16.1 122.8 16.1C121.356 16.1 120.064 16.4167 118.924 17.05C117.809 17.6833 116.935 18.5827 116.302 19.748C115.694 20.888 115.39 22.2053 115.39 23.7C115.39 25.1947 115.694 26.5247 116.302 27.69C116.935 28.83 117.809 29.7167 118.924 30.35C120.064 30.9833 121.356 31.3 122.8 31.3C125.257 31.3 127.347 30.2613 129.07 28.184L133.858 32.516C132.566 34.1373 130.945 35.3787 128.994 36.24C127.043 37.1013 124.852 37.532 122.42 37.532Z" fill="white"/>
<path fill-rule="evenodd" clip-rule="evenodd" d="M34 23C34 32.3888 26.3888 40 17 40C7.61116 40 0 32.3888 0 23C0 13.6112 7.61116 6 17 6C26.3888 6 34 13.6112 34 23ZM24.6701 30.2291C27.3158 28.028 29 24.7107 29 21C29 14.3726 23.6274 9 17 9C10.3726 9 5 14.3726 5 21C5 27.6274 10.3726 33 17 33C19.6504 33 22.1001 32.1408 24.0858 30.6856C23.9951 30.6154 23.9066 30.5424 23.8203 30.4668C23.2995 30.0046 22.8535 29.4609 22.4824 28.8359C22.1178 28.2109 21.8118 27.5371 21.5645 26.8145C21.3236 26.0918 21.138 25.3366 21.0078 24.5488C20.8776 23.7611 20.7897 22.9766 20.7441 22.1953C20.6986 21.4076 20.6855 20.6393 20.7051 19.8906C20.7311 19.1354 20.7767 18.4355 20.8418 17.791C20.7246 17.9668 20.5814 18.2467 20.4121 18.6309C20.2428 19.015 20.054 19.4642 19.8457 19.9785C19.6439 20.4928 19.4323 21.056 19.2109 21.668C18.9896 22.2734 18.7682 22.8854 18.5469 23.5039C18.332 24.1224 18.1204 24.7311 17.9121 25.3301C17.7103 25.9225 17.528 26.4629 17.3652 26.9512C17.209 27.4395 17.0723 27.8529 16.9551 28.1914C16.8444 28.5365 16.7728 28.7676 16.7402 28.8848C16.7142 28.9629 16.6784 29.0605 16.6328 29.1777C16.5938 29.2949 16.5417 29.4089 16.4766 29.5195C16.418 29.6302 16.3464 29.7246 16.2617 29.8027C16.1836 29.8809 16.0924 29.9199 15.9883 29.9199C15.8711 29.9199 15.7734 29.8711 15.6953 29.7734C15.6172 29.6823 15.5521 29.5716 15.5 29.4414C15.4544 29.3112 15.4154 29.181 15.3828 29.0508C15.3568 28.9206 15.3372 28.8164 15.3242 28.7383C15.2852 28.4648 15.2493 28.1198 15.2168 27.7031C15.1842 27.2865 15.1549 26.8242 15.1289 26.3164C15.1094 25.8086 15.0931 25.2682 15.0801 24.6953L15.041 22.957C15.0345 22.3711 15.028 21.7982 15.0215 21.2383C15.0215 20.6719 15.0182 20.1445 15.0117 19.6562V18.3281V17.3906C14.8685 17.7161 14.696 18.1296 14.4941 18.6309C14.2988 19.1322 14.084 19.6953 13.8496 20.3203C13.6217 20.9453 13.3809 21.6191 13.127 22.3418C12.8796 23.0579 12.6322 23.7969 12.3848 24.5586C12.1439 25.3203 11.9095 26.0885 11.6816 26.8633C11.4603 27.638 11.2617 28.39 11.0859 29.1191C11.0664 29.1842 11.0404 29.2624 11.0078 29.3535C10.9818 29.4512 10.946 29.5423 10.9004 29.627C10.8548 29.7116 10.7962 29.7832 10.7246 29.8418C10.6595 29.9069 10.5781 29.9395 10.4805 29.9395C10.3893 29.9395 10.3079 29.9102 10.2363 29.8516C10.1647 29.793 10.1029 29.7214 10.0508 29.6367C10.0052 29.5586 9.96615 29.4707 9.93359 29.373C9.90755 29.2819 9.89128 29.1973 9.88477 29.1191C9.85221 28.9564 9.82292 28.7773 9.79688 28.582C9.77734 28.3867 9.75781 28.1849 9.73828 27.9766L9.69922 27.3711C9.6862 27.1758 9.67318 26.9935 9.66016 26.8242C9.58854 25.9323 9.53646 25.0501 9.50391 24.1777C9.47786 23.3053 9.46484 22.4264 9.46484 21.541C9.46484 20.6686 9.47786 19.8027 9.50391 18.9434C9.53646 18.084 9.58203 17.2148 9.64062 16.3359C9.66016 16.082 9.68945 15.7988 9.72852 15.4863C9.76758 15.1673 9.84245 14.8678 9.95312 14.5879C10.0703 14.3079 10.2363 14.0736 10.4512 13.8848C10.6725 13.696 10.972 13.6016 11.3496 13.6016C11.4408 13.6016 11.5189 13.6243 11.584 13.6699C11.6491 13.709 11.6816 13.7806 11.6816 13.8848V13.9824L11.5059 15.1543C11.4473 15.5384 11.3854 15.9323 11.3203 16.3359C11.1641 17.638 11.0306 18.9401 10.9199 20.2422C10.8158 21.5378 10.7637 22.8431 10.7637 24.1582C10.7637 24.6725 10.7734 25.1803 10.793 25.6816C10.8125 26.1829 10.8483 26.6875 10.9004 27.1953C11.3496 25.8021 11.7435 24.5684 12.082 23.4941C12.4271 22.4199 12.7298 21.4792 12.9902 20.6719C13.2507 19.8646 13.4688 19.1777 13.6445 18.6113C13.8268 18.0384 13.9798 17.5599 14.1035 17.1758C14.2272 16.7917 14.3249 16.4857 14.3965 16.2578C14.4681 16.0234 14.5267 15.8444 14.5723 15.7207C14.6178 15.5905 14.6504 15.4961 14.6699 15.4375C14.6895 15.3789 14.709 15.3268 14.7285 15.2812C14.8262 15.0599 14.9596 14.8613 15.1289 14.6855C15.2982 14.5098 15.5163 14.4219 15.7832 14.4219C15.9655 14.4219 16.112 14.4674 16.2227 14.5586C16.3398 14.6497 16.431 14.7637 16.4961 14.9004C16.5612 15.0371 16.6035 15.1868 16.623 15.3496C16.6491 15.5124 16.6621 15.6621 16.6621 15.7988C16.6491 16.8079 16.6198 17.8073 16.5742 18.7969C16.5286 19.7799 16.4896 20.7565 16.457 21.7266C16.4245 22.6966 16.4082 23.6602 16.4082 24.6172C16.4147 25.5742 16.4603 26.528 16.5449 27.4785C16.8053 26.7103 17.0462 25.9876 17.2676 25.3105C17.4889 24.627 17.6973 23.9759 17.8926 23.3574C18.0944 22.7389 18.2865 22.1432 18.4688 21.5703C18.6576 20.9974 18.8496 20.431 19.0449 19.8711C19.2467 19.3112 19.4551 18.7513 19.6699 18.1914C19.8848 17.6315 20.1224 17.0553 20.3828 16.4629C20.4414 16.3457 20.5065 16.2285 20.5781 16.1113C20.6497 15.9876 20.7311 15.877 20.8223 15.7793C20.9134 15.6816 21.0176 15.6003 21.1348 15.5352C21.252 15.4701 21.3822 15.4375 21.5254 15.4375C21.7272 15.4375 21.8867 15.5026 22.0039 15.6328C22.1211 15.763 22.209 15.9193 22.2676 16.1016C22.3327 16.2839 22.375 16.4759 22.3945 16.6777C22.4141 16.873 22.4238 17.0391 22.4238 17.1758C22.4238 17.7747 22.4043 18.4388 22.3652 19.168C22.3262 19.8906 22.2969 20.6426 22.2773 21.4238C22.2643 22.2051 22.2741 22.9961 22.3066 23.7969C22.3392 24.5977 22.4271 25.3724 22.5703 26.1211C22.7135 26.8698 22.9251 27.5697 23.2051 28.2207C23.485 28.8717 23.8626 29.4382 24.3379 29.9199C24.4432 30.0281 24.5539 30.1312 24.6701 30.2291ZM25.5309 30.8096C28.2692 28.4263 30 24.9153 30 21C30 13.8203 24.1797 8 17 8C9.8203 8 4 13.8203 4 21C4 28.1797 9.8203 34 17 34C20.0109 34 22.7827 32.9764 24.9865 31.2583C25.1975 31.3669 25.4175 31.4644 25.6465 31.5508C26.3431 31.8177 27.1374 31.9512 28.0293 31.9512C28.2897 31.9512 28.5469 31.9219 28.8008 31.8633C29.0612 31.8047 29.3021 31.694 29.5234 31.5312L29.4648 31.3359C29.3346 31.3945 29.1979 31.4336 29.0547 31.4531C28.918 31.4792 28.7747 31.4922 28.625 31.4922C27.6419 31.4922 26.7988 31.3522 26.0957 31.0723C25.8986 30.993 25.7103 30.9055 25.5309 30.8096Z" fill="url(#paint0_linear_15_18)"/>
<defs>
<linearGradient id="paint0_linear_15_18" x1="34" y1="16.5" x2="0.000186401" y2="28.5005" gradientUnits="userSpaceOnUse">
<stop stop-color="#F040FF"/>
<stop offset="1" stop-color="#7533B6"/>
</linearGradient>
</defs>
</svg>
