<svg width="21" height="21" viewBox="0 0 21 21" fill="none" xmlns="http://www.w3.org/2000/svg">
<path d="M20.3554 3.75681C21.2148 2.89739 21.2148 1.50399 20.3554 0.644566C19.496 -0.214855 18.1026 -0.214855 17.2432 0.644566L0.644566 17.2432C-0.214855 18.1026 -0.214855 19.496 0.644566 20.3554C1.50399 21.2149 2.89738 21.2149 3.7568 20.3554L20.3554 3.75681Z" fill="white"/>
<path d="M20.3554 3.75681C21.2148 2.89739 21.2148 1.50399 20.3554 0.644566C19.496 -0.214855 18.1026 -0.214855 17.2432 0.644566L0.644566 17.2432C-0.214855 18.1026 -0.214855 19.496 0.644566 20.3554C1.50399 21.2149 2.89738 21.2149 3.7568 20.3554L20.3554 3.75681Z" fill="#79797B"/>
<path d="M0.644586 3.75681C-0.214836 2.89739 -0.214835 1.50399 0.644586 0.644566C1.50401 -0.214855 2.8974 -0.214855 3.75682 0.644566L20.3554 17.2432C21.2149 18.1026 21.2149 19.496 20.3554 20.3554C19.496 21.2149 18.1026 21.2149 17.2432 20.3554L0.644586 3.75681Z" fill="white"/>
<path d="M0.644586 3.75681C-0.214836 2.89739 -0.214835 1.50399 0.644586 0.644566C1.50401 -0.214855 2.8974 -0.214855 3.75682 0.644566L20.3554 17.2432C21.2149 18.1026 21.2149 19.496 20.3554 20.3554C19.496 21.2149 18.1026 21.2149 17.2432 20.3554L0.644586 3.75681Z" fill="#79797B"/>
</svg>
