<svg width="32" height="33" viewBox="0 0 32 33" fill="none" xmlns="http://www.w3.org/2000/svg">
<path d="M21.8391 0.897164C21.2246 0.352732 20.4224 0.0774883 19.6081 0.131732C18.7939 0.185975 18.034 0.565282 17.4951 1.18656C11.7723 9.49449 8.23628 13.7663 1.00653 20.2705C0.493756 20.8674 0.224008 21.6397 0.251976 22.4309C0.279945 23.222 0.603536 23.9728 1.15715 24.531C2.27226 24.0362 3.50331 23.8739 4.70612 24.063C5.90893 24.2521 7.0337 24.7849 7.94869 25.5989C8.86368 26.4129 9.53102 27.4744 9.87254 28.6591C10.2141 29.8439 10.2156 31.1027 9.87704 32.2883C10.4937 32.7729 11.2696 33.0004 12.0461 32.9242C12.8226 32.848 13.3697 32.4637 14.0547 31.8784C21.5273 25.4924 25.159 21.2817 30.559 12.7945C30.8087 12.4021 31.0316 12.1299 31.1622 11.7422C31.2927 11.3545 31.3463 10.9444 31.3198 10.5356C31.2932 10.1268 31.1871 9.72735 31.0076 9.36034C30.828 8.99334 30.5786 8.66602 30.2737 8.39728C29.1963 8.78959 28.035 8.88233 26.9104 8.66586C25.7858 8.4494 24.7388 7.93163 23.8781 7.1663C23.0174 6.40097 22.3745 5.41599 22.0159 4.31359C21.6574 3.21119 21.5963 2.03156 21.8391 0.897164ZM10.3606 24.1532C10.2469 24.2848 10.0972 24.3793 9.9305 24.4246C9.76381 24.4699 9.58761 24.464 9.4242 24.4077C9.2608 24.3514 9.11754 24.2472 9.01257 24.1083C8.90759 23.9694 8.84563 23.802 8.83452 23.6274C8.82341 23.4528 8.86365 23.2787 8.95015 23.1273C9.03665 22.9758 9.16552 22.8538 9.32043 22.7767C9.47535 22.6996 9.64935 22.6708 9.8204 22.694C9.99146 22.7173 10.1519 22.7914 10.2813 22.9072C10.368 22.9832 10.4388 23.0759 10.4898 23.18C10.5408 23.2841 10.5708 23.3974 10.5782 23.5133C10.5856 23.6293 10.5701 23.7456 10.5328 23.8554C10.4954 23.9653 10.4369 24.0665 10.3606 24.1532ZM18.7079 12.3604L18.8347 14.8122C18.8393 14.9278 18.8722 15.0405 18.9303 15.1401C18.9884 15.2397 19.07 15.3231 19.1677 15.3829L21.2684 16.6611C21.3813 16.7292 21.473 16.8282 21.5328 16.9469C21.5927 17.0655 21.6183 17.1988 21.6067 17.3315C21.5951 17.4642 21.5468 17.5909 21.4673 17.697C21.3878 17.8031 21.2804 17.8843 21.1574 17.9312L18.8902 18.8155C18.7839 18.8563 18.6892 18.9232 18.6145 19.0101C18.5398 19.0971 18.4875 19.2014 18.4622 19.3139L17.8993 21.7255C17.8676 21.8539 17.8014 21.9709 17.708 22.0634C17.6146 22.1559 17.4977 22.2204 17.3704 22.2495C17.243 22.2787 17.1102 22.2714 16.9866 22.2286C16.8631 22.1857 16.7537 22.109 16.6706 22.0068L15.1486 20.1016C15.0748 20.0142 14.982 19.9454 14.8774 19.9007C14.7728 19.8561 14.6594 19.8368 14.5461 19.8444L12.168 20.0373C12.0376 20.0486 11.9067 20.0224 11.7902 19.9617C11.6738 19.9011 11.5766 19.8085 11.5096 19.6945C11.4426 19.5804 11.4086 19.4496 11.4115 19.3169C11.4144 19.1842 11.454 19.055 11.5259 18.9441L12.8418 16.8862C12.9046 16.7897 12.9427 16.6789 12.9523 16.5637C12.962 16.4486 12.9431 16.3328 12.8973 16.227L11.9143 13.9279C11.8669 13.8088 11.8524 13.6789 11.8722 13.5521C11.8921 13.4252 11.9457 13.3063 12.0271 13.208C12.1086 13.1097 12.2149 13.0357 12.3347 12.994C12.4545 12.9523 12.5832 12.9445 12.707 12.9713L15.0456 13.5983C15.1548 13.6297 15.27 13.6328 15.3807 13.6076C15.4915 13.5823 15.5943 13.5294 15.6797 13.4536L17.5188 11.8459C17.6173 11.7467 17.7428 11.6795 17.8791 11.653C18.0155 11.6265 18.1565 11.6419 18.2842 11.6971C18.4119 11.7524 18.5204 11.845 18.5959 11.9632C18.6714 12.0813 18.7104 12.2196 18.7079 12.3604ZM22.5367 10.0693C22.3816 10.2436 22.1655 10.3495 21.9345 10.3645C21.7035 10.3795 21.4759 10.3024 21.3001 10.1497C21.1714 10.0338 21.0794 9.88191 21.0357 9.7131C20.9921 9.5443 20.9986 9.36616 21.0545 9.20112C21.1105 9.03607 21.2134 8.89151 21.3502 8.78564C21.487 8.67976 21.6516 8.61731 21.8234 8.60615C21.9951 8.59498 22.1663 8.6356 22.3153 8.7229C22.4643 8.81019 22.5846 8.94025 22.6608 9.0967C22.7371 9.25315 22.766 9.42898 22.7439 9.60206C22.7219 9.77514 22.6498 9.93773 22.5367 10.0693Z" fill="url(#paint0_linear_162_36285)"/>
<defs>
<linearGradient id="paint0_linear_162_36285" x1="14.8629" y1="20.5136" x2="17.5681" y2="9.2342" gradientUnits="userSpaceOnUse">
<stop stop-color="#FFBC0F"/>
<stop offset="1" stop-color="#FFE143"/>
</linearGradient>
</defs>
</svg>
