<svg width="56" height="56" viewBox="0 0 56 56" fill="none" xmlns="http://www.w3.org/2000/svg">
<path d="M44.8437 17.4209L44.8418 17.4207L39.2834 16.7782L39.2834 16.7781L39.28 16.7778C38.9928 16.7543 38.704 16.7798 38.4261 16.8527C38.4681 16.5675 38.4581 16.2766 38.3961 15.9942L38.3961 15.9942L38.3955 15.9917L37.0609 10.5696L37.0607 10.5689C36.9832 10.2637 36.8382 10.0319 36.6418 9.94061C36.5406 9.89363 36.4304 9.88668 36.3212 9.92359C36.2144 9.95969 36.1144 10.0356 36.0241 10.1446L30.8279 16.0278L30.8274 16.0273L30.8209 16.0368C30.6374 16.2998 30.5112 16.5983 30.4504 16.9129C30.3896 17.2276 30.3956 17.5516 30.4679 17.8638L30.4682 17.8652L31.6803 22.7737L31.5069 22.9671C28.7435 21.1081 25.3774 20.3588 22.0826 20.8715C18.7589 21.3886 15.7577 23.151 13.6905 25.7996C11.6233 28.4483 10.6456 31.7839 10.9567 35.1269C11.2677 38.4699 12.8441 41.5688 15.3646 43.7922C17.8851 46.0156 21.1601 47.1963 24.5224 47.0938C27.8847 46.9913 31.0814 45.6133 33.4612 43.2405C35.841 40.8677 37.225 37.6786 37.331 34.3228C37.437 30.9671 36.2571 27.6973 34.0318 25.1795L33.9598 25.0981L33.8847 25.1765L32.6913 26.4224L32.6513 26.4642L32.6676 26.5197C32.722 26.7055 32.7472 26.8987 32.7421 27.0923L32.7411 27.1285L32.7637 27.157C34.4553 29.2927 35.2895 31.9806 35.1038 34.6967C34.9181 37.4128 33.7259 39.9626 31.7592 41.8493C29.7926 43.736 27.1926 44.8243 24.4657 44.9022C21.7389 44.9801 19.0808 44.0419 17.0093 42.2705C14.9378 40.4991 13.6013 38.0215 13.2603 35.3205C12.9193 32.6194 13.5982 29.8884 15.1647 27.6596C16.7311 25.4307 19.073 23.8638 21.734 23.2642C24.3162 22.6823 27.0193 23.0518 29.3466 24.2995C29.0439 24.4069 28.7708 24.587 28.5524 24.8256L28.5511 24.827L25.4505 28.347C24.9937 28.2408 24.5263 28.1867 24.0571 28.1859H24.0571C22.8053 28.1843 21.5813 28.5534 20.5398 29.2465C19.4983 29.9396 18.6863 30.9256 18.2065 32.0795C17.7267 33.2335 17.6007 34.5037 17.8446 35.7291C18.0884 36.9546 18.6911 38.0803 19.5762 38.9637C20.4614 39.8471 21.5892 40.4486 22.817 40.6919C24.0448 40.9352 25.3173 40.8096 26.4735 40.3307C27.6297 39.8519 28.6175 39.0415 29.312 38.002C30.0064 36.9628 30.3763 35.7412 30.3748 34.4921C30.3887 33.3973 30.1135 32.3182 29.5769 31.3632L29.5114 31.2466L29.4181 31.3424L27.4869 33.3247C27.2457 33.5718 26.9397 33.7461 26.6039 33.8276C26.268 33.9091 25.9159 33.8945 25.588 33.7855L25.5338 33.7674L25.4908 33.805L23.5124 35.5287L23.512 35.529C23.4012 35.6265 23.2586 35.6802 23.1109 35.6802C22.9646 35.6802 22.8233 35.6275 22.713 35.5318C22.6864 35.5038 22.6629 35.4733 22.6428 35.4408C22.7226 35.4468 22.8032 35.4407 22.882 35.4226C23.0257 35.3895 23.1575 35.3173 23.2627 35.214L25.1363 33.459C25.4868 33.5513 25.856 33.5484 26.2056 33.4501C26.5736 33.3466 26.905 33.1415 27.1615 32.8584L27.1624 32.8574L31.7551 27.6547L31.7558 27.6538C31.988 27.3848 32.1447 27.0593 32.21 26.7102C32.2716 26.3806 32.2497 26.0412 32.1467 25.7227L33.4008 24.2933L38.4282 24.8749L38.4282 24.875L38.4303 24.8752C38.7475 24.905 39.0674 24.8687 39.3698 24.7686C39.6721 24.6685 39.9503 24.5067 40.1868 24.2935L40.1872 24.2941L40.195 24.2852L45.3753 18.3709C45.3755 18.3706 45.3757 18.3704 45.376 18.3701C45.5518 18.1766 45.6009 17.9531 45.4876 17.761C45.3806 17.5799 45.1477 17.4619 44.8437 17.4209Z" fill="#FFB800" stroke="#FFB800" stroke-width="0.2"/>
</svg>
