<svg width="32" height="32" viewBox="0 0 32 32" fill="none" xmlns="http://www.w3.org/2000/svg">
<g clip-path="url(#clip0_15_32)">
<path d="M22.0781 2.53492C21.809 2.29374 21.4955 2.10896 21.1557 1.99127C20.8158 1.87358 20.4564 1.8253 20.098 1.84922C19.7397 1.87313 19.3896 1.96877 19.0679 2.13061C18.7462 2.29245 18.4593 2.5173 18.2237 2.79216C13.5655 10.2547 10.332 13.9433 3.56722 19.7556C3.1103 20.2843 2.86969 20.97 2.89458 21.6726C2.91946 22.3751 3.20795 23.0415 3.7011 23.5356C4.69228 23.0926 5.7876 22.946 6.8582 23.1128C7.92879 23.2797 8.93012 23.7532 9.74437 24.4775C10.5586 25.2019 11.1519 26.147 11.4544 27.2017C11.757 28.2564 11.7562 29.3768 11.4521 30.431C12.0005 30.8631 12.6908 31.0667 13.3822 31.0003C14.0736 30.9339 14.7912 30.5121 15.3947 30.0129C22.1167 24.4521 26.6453 18.6288 29.8947 13.0129C30.2889 12.3316 30.5385 11.6939 30.5 11.0993C30.4525 10.3653 30.12 9.68039 29.5754 9.19455C28.618 9.54439 27.5858 9.62797 26.5858 9.43661C25.5858 9.24525 24.6546 8.78592 23.8888 8.10633C23.123 7.42673 22.5505 6.55165 22.2309 5.57193C21.9112 4.59221 21.856 3.54358 22.071 2.53492H22.0781ZM11.9172 23.2069C11.7793 23.3618 11.5872 23.4559 11.3819 23.4693C11.1766 23.4826 10.9742 23.4141 10.8179 23.2784C10.6839 23.1347 10.6076 22.9454 10.604 22.7477C10.6005 22.5499 10.6699 22.3579 10.7987 22.2094C10.9275 22.0608 11.1064 21.9665 11.3003 21.9448C11.4942 21.9231 11.6891 21.9757 11.8467 22.0922C11.9994 22.232 12.0923 22.4268 12.1054 22.635C12.1186 22.8433 12.051 23.0485 11.9172 23.2069ZM19.2947 12.7244L19.4075 14.9038C19.4146 15.0057 19.4459 15.1044 19.4987 15.1915C19.5514 15.2786 19.6241 15.3515 19.7105 15.404L21.5425 16.5473C21.6404 16.6101 21.7191 16.6992 21.7701 16.8046C21.8211 16.9101 21.8423 17.0278 21.8313 17.1447C21.8204 17.2616 21.7777 17.3731 21.7081 17.467C21.6385 17.5608 21.5446 17.6332 21.4368 17.6763L19.4357 18.4551C19.3408 18.4921 19.2561 18.5516 19.1886 18.6287C19.1212 18.7058 19.073 18.7982 19.0481 18.8982L18.5478 21.0418C18.521 21.1561 18.4631 21.2605 18.3808 21.3431C18.2985 21.4258 18.195 21.4834 18.082 21.5094C17.9691 21.5354 17.8512 21.5288 17.7417 21.4904C17.6322 21.452 17.5356 21.3832 17.4627 21.2919L16.1027 19.5984C16.0405 19.5181 15.9597 19.4546 15.8676 19.4135C15.7754 19.3724 15.6747 19.3549 15.5742 19.3626L13.4603 19.5341C13.3447 19.5428 13.229 19.5188 13.126 19.4648C13.023 19.4108 12.9368 19.329 12.877 19.2283C12.8171 19.1276 12.7859 19.0121 12.7869 18.8945C12.7879 18.7769 12.821 18.662 12.8825 18.5623L14.0311 16.7116C14.0869 16.6261 14.1212 16.5279 14.1311 16.4258C14.1409 16.3236 14.1259 16.2206 14.0875 16.1257L13.256 14.1107C13.2093 13.9981 13.1956 13.8743 13.2164 13.754C13.2373 13.6337 13.2918 13.5221 13.3735 13.4324C13.4553 13.3427 13.5608 13.2788 13.6774 13.2483C13.794 13.2178 13.9168 13.222 14.0311 13.2604L16.1027 13.8248C16.2011 13.8502 16.3041 13.8518 16.4032 13.8295C16.5024 13.8072 16.5949 13.7615 16.6735 13.6962L18.3082 12.2671C18.3973 12.2005 18.5023 12.1592 18.6124 12.1476C18.7225 12.136 18.8336 12.1545 18.9343 12.2011C19.035 12.2478 19.1215 12.3209 19.1849 12.413C19.2482 12.505 19.2862 12.6125 19.2947 12.7244ZM22.6981 10.6808C22.597 10.7978 22.464 10.8818 22.3158 10.9221C22.1677 10.9624 22.011 10.9572 21.8658 10.9071C21.7205 10.8571 21.5932 10.7644 21.4999 10.641C21.4066 10.5175 21.3515 10.3687 21.3416 10.2135C21.3317 10.0582 21.3675 9.90353 21.4444 9.76892C21.5213 9.63431 21.6358 9.52586 21.7735 9.45731C21.9112 9.38875 22.0659 9.36318 22.218 9.38382C22.37 9.40446 22.5126 9.47039 22.6277 9.57326C22.7047 9.64085 22.7677 9.72329 22.813 9.81579C22.8583 9.9083 22.885 10.009 22.8916 10.1121C22.8981 10.2151 22.8844 10.3185 22.8512 10.4162C22.818 10.5138 22.766 10.6038 22.6981 10.6808Z" fill="#8C51F9"/>
<path d="M21.1904 1.68637C20.6441 1.20243 19.931 0.957767 19.2072 1.00598C18.4835 1.0542 17.808 1.39136 17.3289 1.94361C12.2421 9.32843 9.09892 13.1256 2.67247 18.9071C2.21667 19.4377 1.9769 20.1242 2.00176 20.8275C2.02662 21.5307 2.31425 22.198 2.80635 22.6942C3.79757 22.2544 4.89183 22.1101 5.961 22.2782C7.03016 22.4463 8.02996 22.9199 8.84328 23.6435C9.65661 24.367 10.2498 25.3106 10.5534 26.3637C10.8569 27.4168 10.8583 28.5358 10.5574 29.5896C11.1055 30.0204 11.7952 30.2225 12.4854 30.1548C13.1756 30.0871 13.662 29.7455 14.2708 29.2252C20.9132 23.5488 24.1414 19.806 28.9414 12.2617C29.1633 11.913 29.3614 11.671 29.4775 11.3264C29.5935 10.9817 29.6411 10.6172 29.6176 10.2538C29.594 9.89047 29.4997 9.53542 29.3401 9.20919C29.1805 8.88297 28.9587 8.59202 28.6877 8.35314C27.73 8.70186 26.6978 8.78429 25.6981 8.59188C24.6985 8.39947 23.7678 7.93923 23.0028 7.25893C22.2377 6.57864 21.6662 5.7031 21.3475 4.72319C21.0288 3.74328 20.9745 2.69472 21.1904 1.68637ZM10.9872 22.3584C10.8861 22.4754 10.7531 22.5593 10.6049 22.5996C10.4567 22.6399 10.3001 22.6347 10.1548 22.5847C10.0096 22.5346 9.88226 22.442 9.78895 22.3185C9.69564 22.195 9.64056 22.0463 9.63068 21.891C9.62081 21.7358 9.65658 21.5811 9.73347 21.4465C9.81035 21.3118 9.9249 21.2034 10.0626 21.1348C10.2003 21.0663 10.355 21.0407 10.507 21.0614C10.6591 21.082 10.8017 21.1479 10.9167 21.2508C10.9937 21.3184 11.0567 21.4008 11.102 21.4933C11.1473 21.5858 11.1741 21.6866 11.1806 21.7896C11.1872 21.8927 11.1734 21.9961 11.1402 22.0937C11.107 22.1913 11.055 22.2813 10.9872 22.3584ZM18.407 11.8759L18.5198 14.0553C18.5239 14.1581 18.553 14.2582 18.6047 14.3468C18.6563 14.4353 18.7288 14.5095 18.8157 14.5626L20.683 15.6987C20.7834 15.7593 20.8649 15.8473 20.9181 15.9528C20.9713 16.0582 20.994 16.1767 20.9837 16.2947C20.9734 16.4126 20.9304 16.5253 20.8598 16.6196C20.7891 16.7139 20.6937 16.786 20.5844 16.8277L18.5691 17.6137C18.4746 17.65 18.3904 17.7095 18.324 17.7868C18.2576 17.8641 18.2111 17.9568 18.1886 18.0568L17.6883 20.2004C17.6601 20.3146 17.6012 20.4186 17.5182 20.5008C17.4352 20.5831 17.3313 20.6403 17.2181 20.6663C17.1049 20.6922 16.9868 20.6857 16.877 20.6476C16.7672 20.6096 16.6699 20.5413 16.5961 20.4505L15.2432 18.757C15.1776 18.6793 15.0951 18.6181 15.0021 18.5784C14.9092 18.5387 14.8083 18.5216 14.7077 18.5284L12.5938 18.6999C12.4778 18.7098 12.3615 18.6866 12.258 18.6327C12.1545 18.5788 12.0681 18.4964 12.0085 18.3951C11.949 18.2937 11.9188 18.1774 11.9213 18.0595C11.9239 17.9415 11.9591 17.8267 12.023 17.7281L13.1927 15.8988C13.2486 15.8131 13.2824 15.7146 13.291 15.6122C13.2996 15.5099 13.2828 15.4069 13.242 15.3129L12.3683 13.2693C12.3261 13.1634 12.3132 13.0479 12.3309 12.9352C12.3485 12.8224 12.3961 12.7167 12.4686 12.6293C12.541 12.5419 12.6355 12.4762 12.742 12.4391C12.8484 12.402 12.9628 12.3951 13.0729 12.4189L15.1516 12.9763C15.2487 13.0041 15.3511 13.007 15.4495 12.9845C15.548 12.962 15.6393 12.915 15.7153 12.8477L17.3501 11.4186C17.4376 11.3304 17.5491 11.2707 17.6703 11.2471C17.7915 11.2236 17.9169 11.2372 18.0304 11.2863C18.1439 11.3355 18.2404 11.4178 18.3075 11.5228C18.3746 11.6278 18.4092 11.7508 18.407 11.8759ZM21.8104 9.83941C21.6725 9.99428 21.4805 10.0884 21.2751 10.1018C21.0698 10.1151 20.8675 10.0466 20.7112 9.91086C20.5968 9.80784 20.5151 9.67281 20.4762 9.52276C20.4374 9.37271 20.4432 9.21436 20.4929 9.06766C20.5427 8.92095 20.6341 8.79246 20.7557 8.69835C20.8773 8.60423 21.0237 8.54872 21.1763 8.5388C21.329 8.52887 21.4812 8.56498 21.6136 8.64258C21.7461 8.72017 21.8529 8.83578 21.9207 8.97484C21.9885 9.11391 22.0142 9.27021 21.9946 9.42406C21.975 9.57791 21.9109 9.72242 21.8104 9.83941Z" fill="url(#paint0_linear_15_32)"/>
</g>
<defs>
<linearGradient id="paint0_linear_15_32" x1="14.9893" y1="19.1232" x2="17.3939" y2="9.09706" gradientUnits="userSpaceOnUse">
<stop stop-color="#82E73B"/>
<stop offset="1" stop-color="#62C423"/>
</linearGradient>
<clipPath id="clip0_15_32">
<rect width="32" height="32" fill="white"/>
</clipPath>
</defs>
</svg>
