<svg width="32" height="32" viewBox="0 0 32 32" fill="none" xmlns="http://www.w3.org/2000/svg">
<path d="M24.6335 12.0753L11.0928 12.0666C10.5316 12.0666 10.0733 11.6128 10.0733 11.0499V10.6572C10.0733 10.0944 10.5316 9.64059 11.0928 9.64059H24.5135C24.1966 8.6894 23.3141 8 22.2732 8H10.3603C9.05807 8 8 9.07773 8 10.4042V13.9952V18.2319V22.5995C8 23.7122 8.88672 24.6154 9.97906 24.6154H24.0209C25.1133 24.6154 26 23.7122 26 22.5995V13.9952C26.0043 13.1007 25.4302 12.3371 24.6335 12.0753ZM22.7144 19.4187C22.0847 19.4187 21.5707 18.8951 21.5707 18.2537C21.5707 17.6123 22.0847 17.0887 22.7144 17.0887C23.3441 17.0887 23.8581 17.6123 23.8581 18.2537C23.8581 18.8995 23.3441 19.4187 22.7144 19.4187Z" fill="#B5B5B5"/>
</svg>
