<svg width="32" height="32" viewBox="0 0 32 32" fill="none" xmlns="http://www.w3.org/2000/svg">
<g clip-path="url(#clip0_15_39)">
<path d="M14.541 13.92L9.01363 8.07794C7.99421 6.99678 6.95586 6.81849 6.70343 7.68825L3.44833 18.5853C3.19516 19.4329 3.80605 20.9928 4.81394 22.0632L10.2939 27.891C11.3065 28.9702 12.3429 29.1552 12.6028 28.3096L15.9148 17.4442C16.1924 16.5893 15.5719 15.0119 14.541 13.92ZM8.64319 19.8367C8.36217 19.4655 8.17768 19.0312 8.10617 18.5726C8.03467 18.114 8.07838 17.6454 8.23339 17.2085C8.53278 16.2063 9.2601 15.7714 9.81975 16.2683C10.3794 16.7652 10.5685 18.0086 10.2217 18.9967C9.87494 19.9848 9.18252 20.3275 8.64319 19.8367Z" fill="#F47821"/>
<path d="M28.7458 11.3052L22.2938 4.41038C21.8487 3.98854 21.3099 3.67701 20.7215 3.50124C20.133 3.32547 19.5117 3.29045 18.9081 3.39902L9.58503 5.52306C8.50061 5.77062 8.27579 6.59733 9.05903 7.4321L15.6906 14.2194C16.1263 14.6205 16.6482 14.9173 17.2164 15.0871C17.7845 15.2568 18.3838 15.2949 18.968 15.1984L28.1067 13.1732C29.2087 12.9162 29.4781 12.0882 28.7458 11.3052ZM15.6844 9.228C15.2281 9.37617 14.7385 9.3926 14.2722 9.27537C13.806 9.15814 13.3822 8.91205 13.05 8.56563C12.3462 7.8352 12.4158 6.91083 13.2218 6.55813C13.6971 6.39418 14.2113 6.37528 14.6985 6.50385C15.1858 6.63242 15.6238 6.9026 15.9566 7.27978C16.5981 8.02093 16.4729 8.88471 15.6844 9.228ZM23.7018 11.6229C23.2455 11.7711 22.7559 11.7875 22.2897 11.6703C21.8234 11.553 21.3996 11.307 21.0674 10.9605C20.3636 10.2301 20.4332 9.30574 21.2393 8.95304C21.7148 8.791 22.2284 8.77307 22.7153 8.90153C23.2021 9.02999 23.6401 9.29907 23.974 9.67469C24.6156 10.4158 24.4903 11.2796 23.7018 11.6229Z" fill="#F89D25"/>
<path d="M29.5955 14.6583C29.8507 13.804 28.8807 13.397 27.4353 13.7419L19.6654 15.6045C18.2336 15.9535 16.8624 16.914 16.6072 17.7683L13.3522 28.6654C13.095 29.5264 14.0522 29.9515 15.5044 29.6086L23.3392 27.7507C24.7913 27.4079 26.1833 26.4023 26.4257 25.5662L29.5955 14.6583ZM16.5132 27.6387C15.7457 27.7391 15.4166 26.9888 15.7045 25.9757C15.8161 25.5283 16.0369 25.1155 16.3473 24.7738C16.6578 24.432 17.0484 24.1719 17.4846 24.0164C18.2048 23.9018 18.5966 24.5903 18.3458 25.5778C18.0951 26.5653 17.2672 27.5342 16.5132 27.6387ZM21.0466 23.3512C20.2791 23.4517 19.9433 22.6993 20.2291 21.693C20.34 21.2423 20.5617 20.8264 20.8742 20.4824C21.1868 20.1385 21.5804 19.8773 22.02 19.7222C22.7334 19.6056 23.1252 20.2941 22.8745 21.2816C22.6237 22.2691 21.7939 23.2448 21.0466 23.3512ZM25.4598 19.3429C24.6942 19.4366 24.3564 18.691 24.6442 17.6779C24.7581 17.2243 24.9843 16.8065 25.3021 16.4626C25.62 16.1187 26.0194 15.8595 26.4643 15.7085C27.1777 15.5919 27.5714 16.2737 27.3255 17.2699C27.2233 17.7477 26.9974 18.1901 26.6702 18.5537C26.343 18.9173 25.9258 19.1893 25.4598 19.3429Z" fill="#F47738"/>
</g>
<defs>
<clipPath id="clip0_15_39">
<rect width="32" height="32" fill="white"/>
</clipPath>
</defs>
</svg>
