<?xml version="1.0" encoding="utf-8"?>
<!-- Generator: Adobe Illustrator 25.4.1, SVG Export Plug-In . SVG Version: 6.00 Build 0)  -->
<svg version="1.1" id="Layer_1" xmlns="http://www.w3.org/2000/svg" xmlns:xlink="http://www.w3.org/1999/xlink" x="0px" y="0px"
	 viewBox="0 0 17 25" style="enable-background:new 0 0 17 25;" xml:space="preserve">
<style type="text/css">
	.st0{fill:#666666;}
</style>
<path class="st0" d="M15.2,19.4c1.2,1.2,1.2,3.1,0,4.2c-1.2,1.2-3.1,1.2-4.2,0l-9.2-9.2c-1.2-1.2-1.2-3.1,0-4.2C2.9,9,4.8,9,6,10.2
	L15.2,19.4z"/>
<path class="st0" d="M15.1,5.1c1.2-1.2,1.2-3.1,0-4.2c-1.2-1.2-3.1-1.2-4.2,0l-9.2,9.2c-1.2,1.2-1.2,3.1,0,4.2
	c1.2,1.2,3.1,1.2,4.2,0L15.1,5.1z"/>
</svg>
