<svg width="14" height="14" viewBox="0 0 14 14" fill="none" xmlns="http://www.w3.org/2000/svg">
<circle cx="7" cy="7" r="7" fill="white"/>
<path d="M6.02799 4.08331C6.02799 3.54636 6.46327 3.11108 7.00022 3.11108C7.53716 3.11108 7.97244 3.54636 7.97244 4.08331V9.91664C7.97244 10.4536 7.53716 10.8889 7.00022 10.8889C6.46327 10.8889 6.02799 10.4536 6.02799 9.91664V4.08331Z" fill="#A34EFF"/>
<path d="M4.08355 7.9722C3.54661 7.9722 3.11133 7.53692 3.11133 6.99997C3.11133 6.46303 3.54661 6.02775 4.08355 6.02775H9.91688C10.4538 6.02775 10.8891 6.46303 10.8891 6.99997C10.8891 7.53692 10.4538 7.9722 9.91688 7.9722H4.08355Z" fill="#A34EFF"/>
</svg>
