<svg width="34" height="34" viewBox="0 0 34 34" fill="none" xmlns="http://www.w3.org/2000/svg">
<path fill-rule="evenodd" clip-rule="evenodd" d="M34 17C34 26.3888 26.3888 34 17 34C7.61116 34 0 26.3888 0 17C0 7.61116 7.61116 0 17 0C26.3888 0 34 7.61116 34 17ZM24.6701 24.2291C27.3158 22.028 29 18.7107 29 15C29 8.37258 23.6274 3 17 3C10.3726 3 5 8.37258 5 15C5 21.6274 10.3726 27 17 27C19.6504 27 22.1001 26.1408 24.0858 24.6856C23.9951 24.6154 23.9066 24.5424 23.8203 24.4668C23.2995 24.0046 22.8535 23.4609 22.4824 22.8359C22.1178 22.2109 21.8118 21.5371 21.5645 20.8145C21.3236 20.0918 21.138 19.3366 21.0078 18.5488C20.8776 17.7611 20.7897 16.9766 20.7441 16.1953C20.6986 15.4076 20.6855 14.6393 20.7051 13.8906C20.7311 13.1354 20.7767 12.4355 20.8418 11.791C20.7246 11.9668 20.5814 12.2467 20.4121 12.6309C20.2428 13.015 20.054 13.4642 19.8457 13.9785C19.6439 14.4928 19.4323 15.056 19.2109 15.668C18.9896 16.2734 18.7682 16.8854 18.5469 17.5039C18.332 18.1224 18.1204 18.7311 17.9121 19.3301C17.7103 19.9225 17.528 20.4629 17.3652 20.9512C17.209 21.4395 17.0723 21.8529 16.9551 22.1914C16.8444 22.5365 16.7728 22.7676 16.7402 22.8848C16.7142 22.9629 16.6784 23.0605 16.6328 23.1777C16.5938 23.2949 16.5417 23.4089 16.4766 23.5195C16.418 23.6302 16.3464 23.7246 16.2617 23.8027C16.1836 23.8809 16.0924 23.9199 15.9883 23.9199C15.8711 23.9199 15.7734 23.8711 15.6953 23.7734C15.6172 23.6823 15.5521 23.5716 15.5 23.4414C15.4544 23.3112 15.4154 23.181 15.3828 23.0508C15.3568 22.9206 15.3372 22.8164 15.3242 22.7383C15.2852 22.4648 15.2493 22.1198 15.2168 21.7031C15.1842 21.2865 15.1549 20.8242 15.1289 20.3164C15.1094 19.8086 15.0931 19.2682 15.0801 18.6953L15.041 16.957C15.0345 16.3711 15.028 15.7982 15.0215 15.2383C15.0215 14.6719 15.0182 14.1445 15.0117 13.6562V12.3281V11.3906C14.8685 11.7161 14.696 12.1296 14.4941 12.6309C14.2988 13.1322 14.084 13.6953 13.8496 14.3203C13.6217 14.9453 13.3809 15.6191 13.127 16.3418C12.8796 17.0579 12.6322 17.7969 12.3848 18.5586C12.1439 19.3203 11.9095 20.0885 11.6816 20.8633C11.4603 21.638 11.2617 22.39 11.0859 23.1191C11.0664 23.1842 11.0404 23.2624 11.0078 23.3535C10.9818 23.4512 10.946 23.5423 10.9004 23.627C10.8548 23.7116 10.7962 23.7832 10.7246 23.8418C10.6595 23.9069 10.5781 23.9395 10.4805 23.9395C10.3893 23.9395 10.3079 23.9102 10.2363 23.8516C10.1647 23.793 10.1029 23.7214 10.0508 23.6367C10.0052 23.5586 9.96615 23.4707 9.93359 23.373C9.90755 23.2819 9.89128 23.1973 9.88477 23.1191C9.85221 22.9564 9.82292 22.7773 9.79688 22.582C9.77734 22.3867 9.75781 22.1849 9.73828 21.9766L9.69922 21.3711C9.6862 21.1758 9.67318 20.9935 9.66016 20.8242C9.58854 19.9323 9.53646 19.0501 9.50391 18.1777C9.47786 17.3053 9.46484 16.4264 9.46484 15.541C9.46484 14.6686 9.47786 13.8027 9.50391 12.9434C9.53646 12.084 9.58203 11.2148 9.64062 10.3359C9.66016 10.082 9.68945 9.79883 9.72852 9.48633C9.76758 9.16732 9.84245 8.86784 9.95312 8.58789C10.0703 8.30794 10.2363 8.07357 10.4512 7.88477C10.6725 7.69596 10.972 7.60156 11.3496 7.60156C11.4408 7.60156 11.5189 7.62435 11.584 7.66992C11.6491 7.70898 11.6816 7.7806 11.6816 7.88477V7.98242L11.5059 9.1543C11.4473 9.53841 11.3854 9.93229 11.3203 10.3359C11.1641 11.638 11.0306 12.9401 10.9199 14.2422C10.8158 15.5378 10.7637 16.8431 10.7637 18.1582C10.7637 18.6725 10.7734 19.1803 10.793 19.6816C10.8125 20.1829 10.8483 20.6875 10.9004 21.1953C11.3496 19.8021 11.7435 18.5684 12.082 17.4941C12.4271 16.4199 12.7298 15.4792 12.9902 14.6719C13.2507 13.8646 13.4688 13.1777 13.6445 12.6113C13.8268 12.0384 13.9798 11.5599 14.1035 11.1758C14.2272 10.7917 14.3249 10.4857 14.3965 10.2578C14.4681 10.0234 14.5267 9.8444 14.5723 9.7207C14.6178 9.5905 14.6504 9.49609 14.6699 9.4375C14.6895 9.37891 14.709 9.32682 14.7285 9.28125C14.8262 9.0599 14.9596 8.86133 15.1289 8.68555C15.2982 8.50977 15.5163 8.42188 15.7832 8.42188C15.9655 8.42188 16.112 8.46745 16.2227 8.55859C16.3398 8.64974 16.431 8.76367 16.4961 8.90039C16.5612 9.03711 16.6035 9.18685 16.623 9.34961C16.6491 9.51237 16.6621 9.66211 16.6621 9.79883C16.6491 10.8079 16.6198 11.8073 16.5742 12.7969C16.5286 13.7799 16.4896 14.7565 16.457 15.7266C16.4245 16.6966 16.4082 17.6602 16.4082 18.6172C16.4147 19.5742 16.4603 20.528 16.5449 21.4785C16.8053 20.7103 17.0462 19.9876 17.2676 19.3105C17.4889 18.627 17.6973 17.9759 17.8926 17.3574C18.0944 16.7389 18.2865 16.1432 18.4688 15.5703C18.6576 14.9974 18.8496 14.431 19.0449 13.8711C19.2467 13.3112 19.4551 12.7513 19.6699 12.1914C19.8848 11.6315 20.1224 11.0553 20.3828 10.4629C20.4414 10.3457 20.5065 10.2285 20.5781 10.1113C20.6497 9.98763 20.7311 9.87695 20.8223 9.7793C20.9134 9.68164 21.0176 9.60026 21.1348 9.53516C21.252 9.47005 21.3822 9.4375 21.5254 9.4375C21.7272 9.4375 21.8867 9.5026 22.0039 9.63281C22.1211 9.76302 22.209 9.91927 22.2676 10.1016C22.3327 10.2839 22.375 10.4759 22.3945 10.6777C22.4141 10.873 22.4238 11.0391 22.4238 11.1758C22.4238 11.7747 22.4043 12.4388 22.3652 13.168C22.3262 13.8906 22.2969 14.6426 22.2773 15.4238C22.2643 16.2051 22.2741 16.9961 22.3066 17.7969C22.3392 18.5977 22.4271 19.3724 22.5703 20.1211C22.7135 20.8698 22.9251 21.5697 23.2051 22.2207C23.485 22.8717 23.8626 23.4382 24.3379 23.9199C24.4432 24.0281 24.5539 24.1312 24.6701 24.2291ZM25.5309 24.8096C28.2692 22.4263 30 18.9153 30 15C30 7.8203 24.1797 2 17 2C9.8203 2 4 7.8203 4 15C4 22.1797 9.8203 28 17 28C20.0109 28 22.7827 26.9764 24.9865 25.2583C25.1975 25.3669 25.4175 25.4644 25.6465 25.5508C26.3431 25.8177 27.1374 25.9512 28.0293 25.9512C28.2897 25.9512 28.5469 25.9219 28.8008 25.8633C29.0612 25.8047 29.3021 25.694 29.5234 25.5312L29.4648 25.3359C29.3346 25.3945 29.1979 25.4336 29.0547 25.4531C28.918 25.4792 28.7747 25.4922 28.625 25.4922C27.6419 25.4922 26.7988 25.3522 26.0957 25.0723C25.8986 24.993 25.7103 24.9055 25.5309 24.8096Z" fill="url(#paint0_linear_15_20)"/>
<defs>
<linearGradient id="paint0_linear_15_20" x1="34" y1="10.5" x2="0.000186408" y2="22.5005" gradientUnits="userSpaceOnUse">
<stop stop-color="#F040FF"/>
<stop offset="1" stop-color="#7533B6"/>
</linearGradient>
</defs>
</svg>
